# xmcd
#
# Track frame offsets: 
#        150
#        13834
#        30093
#        55848
#        68455
#        85420
#        103186
#        115863
#        128371
#        142183
#        158167
#        174456
#        201564
#
# Disc length: 2911 seconds
#
# Revision: 0
# Processed by: cddbd v1.5.2PL0 Copyright (c) Steve Scherf et al.
# Submitted via: ExactAudioCopy v0.99pb5
#
DISCID=aa0b5d0d
DTITLE=Various Artist - MUSIC MAKER BLUES REVUE 2010
DYEAR=2010
DGENRE=Blues
TTITLE0=01 Big Fine Woman [Pat "Mother Blues" Cohen]
TTITLE1=02 You Got Me Singing [Albert White]
TTITLE2=03 Please Send Someone To Love [Eddie Tigner]
TTITLE3=04 Atlanta Boogie [Tommy Brown]
TTITLE4=05 Where Can I Go [Dr. Burt]
TTITLE5=06 I¨ll Take You There [Pat "Mother Blues" Cohen]
TTITLE6=07 Bring It On Home To Me [Albert White]
TTITLE7=08 Sraighten Up and Fly Right [Eddie Tigner]
TTITLE8=09 Nevermind [Tommy Brown]
TTITLE9=10 Dr. Fellgood [Pat "Mother Blues" Cohen]
TTITLE10=11 Woman I Love [Dr. Burt]
TTITLE11=12 Afters Hours [Eddie Tigner]
TTITLE12=13 Summertime [Lil¨Joe Burton]
EXTD=
EXTT0=
EXTT1=
EXTT2=
EXTT3=
EXTT4=
EXTT5=
EXTT6=
EXTT7=
EXTT8=
EXTT9=
EXTT10=
EXTT11=
EXTT12=
PLAYORDER=
